<?xml version="1.0" encoding="utf-8"?>
<!-- Generator: Adobe Illustrator 28.0.0, SVG Export Plug-In . SVG Version: 6.00 Build 0)  -->
<svg version="1.1" id="Layer_1" xmlns="http://www.w3.org/2000/svg" xmlns:xlink="http://www.w3.org/1999/xlink" x="0px" y="0px"
	 viewBox="0 0 724 185.7" style="enable-background:new 0 0 724 185.7;" xml:space="preserve">
<style type="text/css">
	.st0{fill:none;stroke:#000000;stroke-width:0.9436;stroke-miterlimit:10;}
	.st1{fill:none;stroke:#000000;stroke-width:1.1589;stroke-miterlimit:10;}
	.st2{enable-background:new    ;}
</style>
<g>
	<g>
		<g>
			<path d="M357.7,88.4V59.6h14.1c3.7,0,6.3,0.7,8.1,2.1s2.7,3.1,2.7,5.4c0,1.5-0.4,2.8-1.1,4c-0.8,1.1-1.8,2-3.1,2.6
				c-1.3,0.7-2.8,0.9-4.4,0.9l0.8-1.8c1.8,0,3.4,0.3,4.8,0.9c1.4,0.7,2.5,1.5,3.3,2.6s1.2,2.6,1.2,4.2c0,2.5-0.9,4.4-2.9,5.8
				s-4.8,2.1-8.6,2.1L357.7,88.4L357.7,88.4z M364.4,83.4h7.8c1.7,0,3-0.3,4-0.8c0.9-0.6,1.3-1.5,1.3-2.6c0-1.2-0.4-2.1-1.3-2.7
				s-2.2-0.8-4-0.8h-8.3v-4.9h7.1c1.6,0,2.8-0.3,3.7-0.8s1.2-1.4,1.2-2.6s-0.4-2.1-1.2-2.5c-0.8-0.6-2.1-0.8-3.7-0.8h-6.6V83.4
				L364.4,83.4z"/>
			<path d="M395.8,83h15.7v5.4h-22.3V59.6H411V65h-15.2V83z M395.4,71.1h13.9v5.2h-13.9V71.1z"/>
			<path d="M416.8,88.4V59.6h5.5l17,20.7h-2.6V59.6h6.6v28.8h-5.5l-17-20.7h2.6v20.7C423.4,88.4,416.8,88.4,416.8,88.4z"/>
			<path d="M463.9,88.9c-2.3,0-4.3-0.4-6.3-1.1c-1.9-0.7-3.6-1.8-5-3.1c-1.4-1.3-2.5-2.9-3.3-4.7c-0.8-1.8-1.2-3.8-1.2-5.9
				c0-2.2,0.4-4.2,1.2-5.9c0.8-1.8,1.9-3.4,3.3-4.7s3.1-2.4,5-3.1c1.9-0.7,4-1.1,6.3-1.1c2.5,0,4.8,0.4,6.9,1.2s3.8,2.1,5.2,3.7
				l-4.2,4c-1-1.1-2.3-2-3.4-2.5c-1.2-0.6-2.6-0.8-4.1-0.8c-1.4,0-2.6,0.2-3.8,0.7c-1.1,0.4-2.2,1.1-2.9,1.9c-0.8,0.8-1.5,1.8-2,2.9
				c-0.4,1.1-0.7,2.4-0.7,3.7c0,1.3,0.2,2.5,0.7,3.7c0.4,1.1,1.1,2.1,2,2.9c0.8,0.8,1.8,1.5,2.9,2s2.4,0.7,3.8,0.7
				c1.3,0,2.6-0.2,3.9-0.7c1.2-0.5,2.5-1.2,3.7-2.2l3.8,4.8c-1.6,1.2-3.4,2.1-5.5,2.7C468,88.6,465.9,88.9,463.9,88.9z M469.4,84.4
				V73.6h6.1v11.6L469.4,84.4z"/>
			<path d="M477.9,88.4l12.8-28.8h6.6l12.9,28.8h-7l-10.7-25.5h2.6l-10.6,25.5H477.9z M484.3,82.2l1.7-5.1h14.9l1.8,5.1H484.3z"/>
			<path d="M513.2,88.4V59.6h6.7V83h14.2v5.4H513.2z"/>
			<path d="M549.6,88.4V59.6h6.7V83h14.3v5.4H549.6z"/>
			<path d="M570.9,88.4l12.7-28.8h6.6l12.9,28.8h-7l-10.6-25.5h2.6l-10.7,25.5H570.9z M577.3,82.2l1.7-5.1h14.9l1.8,5.1H577.3z"/>
			<path d="M606.1,88.4V59.6h5.5l12.3,20.3H621l12-20.3h5.6v28.8h-6.1l-0.1-19.2h1.2L624,85.3h-2.9l-9.8-16.1h1.3v19.2
				C612.6,88.4,606.1,88.4,606.1,88.4z"/>
			<path d="M645.4,88.4V59.6h12.5c2.6,0,4.8,0.4,6.7,1.2s3.3,2.1,4.3,3.6c0.9,1.5,1.5,3.4,1.5,5.6s-0.5,4-1.5,5.6
				c-0.9,1.5-2.5,2.7-4.3,3.6c-1.9,0.8-4.1,1.2-6.7,1.2h-8.8l3-3v10.9L645.4,88.4L645.4,88.4z M652.1,78.2l-3-3.1h8.4
				c2.1,0,3.6-0.4,4.6-1.3c1-0.8,1.5-2.1,1.5-3.7s-0.5-2.8-1.5-3.7s-2.6-1.2-4.6-1.2h-8.4l3-3.1V78.2z"/>
			<path d="M685,88.9c-2.4,0-4.5-0.3-6.7-0.9c-2.1-0.7-3.9-1.4-5.1-2.4l2.3-5c1.2,0.9,2.6,1.6,4.3,2.2s3.4,0.8,5.1,0.8
				c1.3,0,2.4-0.1,3.1-0.4c0.8-0.3,1.4-0.7,1.8-1.1c0.4-0.4,0.6-0.9,0.6-1.6c0-0.8-0.3-1.4-0.9-1.8c-0.7-0.4-1.4-0.8-2.4-1.1
				s-2.1-0.6-3.3-0.8c-1.2-0.3-2.4-0.6-3.6-0.9c-1.2-0.4-2.4-0.8-3.3-1.5s-1.8-1.4-2.4-2.5c-0.6-0.9-0.9-2.3-0.9-3.8
				c0-1.6,0.4-3.1,1.3-4.5c0.8-1.3,2.3-2.5,4-3.2c1.8-0.8,4.1-1.2,6.7-1.2c1.8,0,3.6,0.2,5.4,0.7c1.8,0.4,3.3,1,4.6,1.9l-2.1,5
				c-1.2-0.8-2.6-1.2-4-1.7c-1.4-0.4-2.6-0.6-4-0.6c-1.3,0-2.4,0.1-3.1,0.4c-0.8,0.3-1.4,0.7-1.8,1.2c-0.4,0.5-0.6,1-0.6,1.6
				c0,0.8,0.3,1.4,0.9,1.8c0.7,0.5,1.4,0.8,2.4,1.1c0.9,0.3,2.1,0.5,3.3,0.8s2.4,0.6,3.6,0.9c1.2,0.4,2.3,0.8,3.2,1.5
				c0.9,0.6,1.8,1.4,2.4,2.4c0.7,0.9,0.9,2.3,0.9,3.7c0,1.6-0.4,3.1-1.3,4.4s-2.3,2.5-4.1,3.2C689.9,88.4,687.8,88.9,685,88.9z"/>
			<path d="M361.2,121.2l-5.9-17.6h1.9l5.7,16.7H362l5.8-16.7h1.8l5.7,16.7h-0.9l5.7-16.7h1.8l-5.9,17.6h-2l-5.6-15.8h0.5l-5.5,15.8
				C363.4,121.2,361.2,121.2,361.2,121.2z"/>
			<path d="M386.9,121.2H385v-17.6h1.9V121.2z M398.1,113h-11.4v-1.6h11.4V113z M397.9,103.5h1.8v17.6h-1.8V103.5z"/>
			<path d="M405.5,121.2v-17.6h1.9v17.6H405.5z"/>
			<path d="M416.6,121.2v-16h-6.2v-1.6h14.3v1.6h-6.2v16H416.6z"/>
			<path d="M429.6,119.6h10.7v1.6h-12.5v-17.6h12v1.6h-10.3L429.6,119.6L429.6,119.6z M429.3,111.4h9.3v1.6h-9.3V111.4z"/>
			<path d="M446.5,121.2h-1.9v-17.6h12.2v1.6h-10.3L446.5,121.2L446.5,121.2z M446.3,112h9.3v1.6h-9.3V112z"/>
			<path d="M460.6,121.2v-17.6h1.9v17.6H460.6z"/>
			<path d="M470.2,119.6h10.7v1.6h-12.5v-17.6h12.2v1.6h-10.3L470.2,119.6L470.2,119.6z M469.9,111.4h9.3v1.6h-9.3V111.4z"/>
			<path d="M485.3,121.2v-17.6h1.9v16h9.9v1.6H485.3z"/>
			<path d="M500.1,121.2v-17.6h7.3c1.9,0,3.6,0.4,5,1.1s2.5,1.8,3.3,3.1c0.8,1.3,1.2,2.8,1.2,4.6s-0.4,3.3-1.2,4.6
				c-0.8,1.3-1.9,2.4-3.3,3.1c-1.4,0.8-3.1,1.1-5,1.1L500.1,121.2L500.1,121.2z M502,119.6h5.3c1.5,0,2.9-0.3,4.1-0.9
				c1.1-0.7,2.1-1.5,2.6-2.5c0.6-1,0.9-2.4,0.9-3.8s-0.4-2.6-0.9-3.8c-0.7-1-1.5-1.9-2.6-2.5c-1.1-0.7-2.5-0.9-4.1-0.9H502V119.6z"
				/>
			<path d="M519.1,124.8l1.1-4.7l0.2,1.1c-0.4,0-0.7-0.1-0.9-0.4c-0.3-0.3-0.4-0.6-0.4-0.9c0-0.4,0.1-0.7,0.4-0.9s0.6-0.4,0.9-0.4
				s0.7,0.1,0.9,0.4c0.3,0.3,0.4,0.6,0.4,0.9c0,0.1,0,0.3,0,0.4s-0.1,0.3-0.1,0.4c-0.1,0.1-0.1,0.4-0.2,0.7l-1,3.5L519.1,124.8
				L519.1,124.8z"/>
			<path d="M532.5,121.2v-17.6h7.6c2,0,3.5,0.4,4.5,1.2c1,0.8,1.6,1.9,1.6,3.4c0,0.9-0.2,1.8-0.7,2.5s-1,1.1-1.8,1.5
				s-1.6,0.5-2.5,0.5l0.4-0.7c1.1,0,2.1,0.1,2.9,0.5s1.5,0.8,1.9,1.5s0.7,1.5,0.7,2.5c0,1.5-0.6,2.6-1.7,3.5s-2.7,1.2-5,1.2H532.5
				L532.5,121.2z M534.3,119.6h6.2c1.5,0,2.7-0.3,3.6-0.8c0.8-0.6,1.2-1.4,1.2-2.5s-0.4-2-1.2-2.5c-0.8-0.6-2.1-0.8-3.6-0.8h-6.4
				v-1.5h5.9c1.4,0,2.5-0.3,3.3-0.8c0.8-0.6,1.2-1.3,1.2-2.4c0-1-0.4-1.9-1.2-2.4c-0.8-0.6-1.9-0.8-3.3-0.8h-5.7V119.6z"/>
			<path d="M548.8,121.2l8-17.6h1.8l8.1,17.6h-2l-7.5-16.6h0.8l-7.4,16.6H548.8z M551.9,116.4l0.6-1.5h10.3l0.6,1.5H551.9z"/>
			<path d="M569.7,121.2v-17.6h1.5l12.2,15.4h-0.8v-15.4h1.8v17.6h-1.5l-12.2-15.4h0.8v15.4C571.6,121.2,569.7,121.2,569.7,121.2z"
				/>
			<path d="M598.1,121.3c-1.3,0-2.6-0.2-3.7-0.7c-1.1-0.4-2.1-1-2.9-1.9s-1.5-1.8-2-2.8c-0.5-1.1-0.7-2.4-0.7-3.6
				c0-1.3,0.2-2.5,0.7-3.6s1.1-2.1,2-2.8c0.8-0.8,1.8-1.4,2.9-1.9c1.1-0.4,2.4-0.7,3.7-0.7s2.6,0.2,3.7,0.7c1.1,0.4,2.1,1,2.8,1.9
				l-1.2,1.2c-0.8-0.8-1.5-1.2-2.5-1.6c-0.9-0.4-1.8-0.5-2.8-0.5c-1.1,0-2.1,0.2-3,0.6s-1.8,0.8-2.4,1.5c-0.7,0.7-1.2,1.5-1.6,2.4
				c-0.4,0.9-0.6,1.9-0.6,2.9s0.2,2.1,0.6,2.8c0.4,0.9,0.9,1.7,1.6,2.4s1.5,1.2,2.4,1.5c0.9,0.4,1.9,0.6,3,0.6c0.9,0,2-0.1,2.8-0.4
				s1.8-0.8,2.5-1.5l1,1.4c-0.8,0.8-1.8,1.3-2.9,1.7C600.5,121.3,599.3,121.3,598.1,121.3z M602.8,118.8v-6.5h1.8v6.7L602.8,118.8z"
				/>
			<path d="M607,121.2l8.1-17.6h1.8l8.1,17.6h-2l-7.5-16.6h0.8l-7.4,16.6H607z M610.2,116.4l0.6-1.5h10.3l0.6,1.5H610.2z"/>
			<path d="M628,121.2v-17.6h1.9v16h9.9v1.6H628z"/>
			<path d="M650.3,121.3c-1.3,0-2.6-0.2-3.7-0.7c-1.1-0.4-2.1-1-2.9-1.9s-1.5-1.8-2-2.8c-0.5-1.1-0.7-2.4-0.7-3.6
				c0-1.3,0.2-2.5,0.7-3.6s1.1-2.1,2-2.8c0.8-0.8,1.8-1.5,2.9-1.9c1.1-0.4,2.4-0.7,3.7-0.7s2.6,0.2,3.7,0.7c1.1,0.4,2.1,1,2.9,1.9
				c0.8,0.8,1.5,1.8,2,2.8c0.5,1.1,0.7,2.4,0.7,3.6c0,1.3-0.2,2.5-0.7,3.6s-1.1,2.1-2,2.8c-0.8,0.8-1.8,1.4-2.9,1.9
				C652.9,121.1,651.6,121.3,650.3,121.3z M650.3,119.6c1,0,2.1-0.2,2.9-0.6c0.9-0.4,1.7-0.8,2.4-1.5s1.2-1.5,1.5-2.4
				c0.4-0.9,0.6-1.9,0.6-2.9s-0.2-2.1-0.6-2.9s-0.9-1.7-1.5-2.4c-0.7-0.7-1.5-1.2-2.4-1.5c-0.9-0.4-1.9-0.6-2.9-0.6
				s-2.1,0.2-2.9,0.6c-0.9,0.4-1.7,0.8-2.4,1.5s-1.2,1.5-1.5,2.4c-0.4,0.9-0.6,1.9-0.6,2.9s0.2,2.1,0.6,2.8c0.4,0.9,0.9,1.7,1.5,2.4
				c0.7,0.7,1.5,1.2,2.4,1.5C648.3,119.5,649.3,119.6,650.3,119.6z"/>
			<path d="M663.8,121.2v-17.6h6.6c1.5,0,2.8,0.2,3.9,0.7c1,0.5,1.9,1.2,2.5,2.1s0.8,2,0.8,3.3c0,1.2-0.3,2.4-0.8,3.2
				c-0.6,0.8-1.4,1.6-2.5,2.1c-1,0.5-2.4,0.7-3.9,0.7h-5.7l0.8-0.8v6.4L663.8,121.2L663.8,121.2z M665.7,114.8l-0.8-0.9h5.6
				c1.8,0,3.1-0.4,4.1-1.2c0.9-0.8,1.4-1.9,1.4-3.3s-0.5-2.5-1.4-3.3s-2.3-1.2-4.1-1.2h-5.6l0.8-0.9V114.8z M675.9,121.2l-4.5-6.4
				h2.1l4.5,6.4H675.9z"/>
			<path d="M683.9,119.6h10.7v1.6h-12.5v-17.6h12.2v1.6H684L683.9,119.6L683.9,119.6z M683.8,111.4h9.3v1.6h-9.3V111.4z"/>
		</g>
	</g>
</g>
<line class="st0" x1="333" y1="17" x2="333" y2="166.9"/>
<g>
	<g>
		<path d="M53.8,93.9c-3.7,0-7-0.6-10.1-1.7c-3.1-1.2-5.7-2.8-8-5c-2.2-2.2-4-4.7-5.3-7.6s-1.9-6.1-1.9-9.6s0.6-6.7,1.9-9.6
			s3-5.4,5.3-7.6s5-3.8,8.1-5C46.9,46.6,50.3,46,54,46c4.1,0,7.8,0.7,11.1,2c3.3,1.4,6,3.3,8.3,5.9l-6.8,6.3c-1.7-1.8-3.6-3.1-5.5-4
			c-2-0.9-4.2-1.3-6.5-1.3c-2.2,0-4.2,0.4-6.1,1.1c-1.8,0.7-3.4,1.8-4.8,3.1c-1.3,1.3-2.4,2.9-3.1,4.7c-0.7,1.8-1.1,3.8-1.1,6
			c0,2.1,0.4,4.1,1.1,5.9c0.7,1.8,1.8,3.4,3.1,4.7c1.3,1.3,2.9,2.4,4.8,3.1c1.8,0.7,3.8,1.1,6,1.1c2.1,0,4.2-0.4,6.2-1.1
			s4-1.9,5.8-3.5l6.1,7.7c-2.6,1.9-5.5,3.4-8.8,4.4C60.4,93.4,57.1,93.9,53.8,93.9z M62.7,86.6V69.2h9.8V88L62.7,86.6z"/>
		<path d="M104.9,93.9c-3.7,0-7-0.6-10.1-1.8c-3.1-1.2-5.8-2.9-8.1-5c-2.3-2.2-4.1-4.7-5.3-7.6c-1.3-2.9-1.9-6.1-1.9-9.5
			c0-3.5,0.6-6.7,1.9-9.5c1.3-2.9,3-5.4,5.3-7.6s5-3.8,8-5c3.1-1.2,6.4-1.8,10.1-1.8s7,0.6,10.1,1.8s5.7,2.8,8,5s4.1,4.7,5.3,7.6
			c1.3,2.9,1.9,6.1,1.9,9.6c0,3.4-0.6,6.6-1.9,9.5c-1.3,2.9-3,5.5-5.3,7.6c-2.3,2.2-5,3.8-8,5C111.8,93.3,108.5,93.9,104.9,93.9z
			 M104.8,84.8c2.1,0,4-0.4,5.7-1.1s3.3-1.8,4.6-3.1c1.3-1.3,2.3-2.9,3.1-4.7c0.7-1.8,1.1-3.8,1.1-6s-0.4-4.2-1.1-6
			c-0.7-1.8-1.8-3.3-3.1-4.7c-1.3-1.3-2.9-2.4-4.6-3.1s-3.6-1.1-5.7-1.1s-4,0.4-5.7,1.1c-1.8,0.7-3.3,1.8-4.6,3.1
			c-1.3,1.3-2.3,2.9-3,4.7c-0.7,1.8-1.1,3.8-1.1,6s0.4,4.2,1.1,6s1.7,3.3,3,4.7c1.3,1.3,2.8,2.4,4.6,3.1
			C100.8,84.5,102.7,84.8,104.8,84.8z"/>
		<path d="M138.2,93.1V46.8h21c5,0,9.4,1,13.3,2.9c3.8,1.9,6.8,4.6,9,8.1s3.2,7.5,3.2,12.2s-1.1,8.7-3.2,12.2
			c-2.2,3.5-5.2,6.1-9,8.1c-3.8,1.9-8.3,2.9-13.3,2.9L138.2,93.1L138.2,93.1z M148.9,84.4h9.7c3.1,0,5.8-0.6,8-1.8
			c2.3-1.2,4-2.8,5.3-5s1.9-4.7,1.9-7.6c0-3-0.6-5.5-1.9-7.7c-1.3-2.2-3-3.8-5.3-5s-4.9-1.8-8-1.8h-9.7V84.4z"/>
		<path d="M192.7,93.1V46.8h20c4.1,0,7.7,0.7,10.7,2s5.3,3.3,6.9,5.8c1.6,2.5,2.4,5.5,2.4,8.9c0,3.5-0.8,6.5-2.4,9
			c-1.6,2.5-3.9,4.4-6.9,5.7c-3,1.3-6.6,1.9-10.7,1.9h-14.1l4.9-4.6v17.6C203.5,93.1,192.7,93.1,192.7,93.1z M203.5,76.7l-4.9-5.1
			h13.5c3.3,0,5.7-0.7,7.4-2.1s2.5-3.4,2.5-5.9c0-2.6-0.8-4.5-2.5-5.9s-4.1-2.1-7.4-2.1h-13.5l4.9-5.1V76.7z M222.2,93.1l-11.6-16.8
			h11.5l11.6,16.8C233.7,93.1,222.2,93.1,222.2,93.1z"/>
		<path d="M251.9,84.5h25.2v8.6h-35.8V46.8h34.9v8.6h-24.3L251.9,84.5L251.9,84.5z M251.1,65.4h22.3v8.4h-22.3L251.1,65.4
			L251.1,65.4z"/>
		<path d="M294.1,93.9c-3.1,0-6-0.6-8.6-1.7c-2.6-1.2-4.8-2.9-6.4-5.1L285,80c1.2,1.7,2.6,2.9,4,3.8c1.4,0.8,3,1.3,4.6,1.3
			c4.4,0,6.5-2.5,6.5-7.6v-22h-16.2v-8.6h26.9v30c0,5.7-1.4,10-4.3,12.8C303.7,92.5,299.6,93.9,294.1,93.9z"/>
	</g>
	<g>
		<line class="st1" x1="28.5" y1="108" x2="310.8" y2="108"/>
		<g class="st2">
			<path d="M36.4,130.9h-5.8l-1.2,3.3h-1.9l4.9-14.2h2l4.9,14.2h-1.8L36.4,130.9z M36,129.4l-2.5-7.3l-2.5,7.3H36z"/>
			<path d="M42.8,119.7v8.7c0,1.4,0.2,2.5,0.8,3.2s1.4,1,2.5,1c1.1,0,1.8-0.3,2.3-1c0.6-0.7,0.8-1.8,0.8-3.2v-8.7H51v8.7
				c0,1.9-0.5,3.5-1.4,4.4s-2.1,1.5-3.6,1.5s-2.7-0.6-3.6-1.5c-0.9-1-1.4-2.5-1.4-4.4v-8.7H42.8z"/>
			<path d="M62,119.7v1.5h-3.7v13h-1.8v-13h-3.7v-1.5H62z"/>
			<path d="M73.9,119.7v14.5h-1.8v-6.8h-6.8v6.8h-1.8v-14.5h1.8v6.2h6.8v-6.2H73.9z"/>
			<path d="M86.1,120.6c1.1,0.7,1.8,1.5,2.3,2.6c0.6,1.1,0.8,2.3,0.8,3.9c0,1.4-0.2,2.8-0.8,3.9c-0.6,1.1-1.4,2.1-2.3,2.6
				c-1.1,0.7-2.1,1-3.4,1s-2.3-0.3-3.4-1c-1.1-0.7-1.8-1.5-2.3-2.6c-0.6-1.1-0.8-2.3-0.8-3.9c0-1.4,0.2-2.8,0.8-3.9
				c0.6-1.1,1.4-2.1,2.3-2.6c1.1-0.7,2.1-1,3.4-1C84,119.6,85.2,119.9,86.1,120.6z M80.3,122.1c-0.7,0.4-1.3,1.1-1.8,1.9
				c-0.5,0.8-0.6,1.8-0.6,3c0,1.1,0.2,2.1,0.6,3c0.5,0.8,0.9,1.5,1.8,1.9c0.7,0.4,1.5,0.7,2.5,0.7c0.9,0,1.8-0.3,2.5-0.7
				c0.7-0.4,1.3-1.1,1.8-1.9c0.5-0.8,0.6-1.8,0.6-3c0-1.1-0.2-2.2-0.6-3c-0.5-0.8-0.9-1.5-1.8-1.9c-0.7-0.4-1.5-0.7-2.5-0.7
				S81,121.5,80.3,122.1z"/>
			<path d="M98.7,134.2l-3.5-5.9h-1.9v5.9h-1.8v-14.5h4.4c1.5,0,2.7,0.4,3.4,1.2c0.8,0.8,1.2,1.8,1.2,3.2c0,1.2-0.4,2.1-0.9,2.9
				c-0.6,0.7-1.5,1.1-2.7,1.4l3.6,5.9h-1.9V134.2z M93.4,127h2.6c2,0,2.9-1,2.9-2.8s-0.9-2.8-2.9-2.8h-2.6V127z"/>
			<path d="M104.5,119.7v14.5h-1.8v-14.5H104.5z"/>
			<path d="M115.2,132.4c-0.4,0.6-0.8,1.1-1.4,1.4c-0.6,0.4-1.4,0.6-2.3,0.6c-0.9,0-1.6-0.1-2.3-0.6c-0.7-0.4-1.3-0.8-1.6-1.4
				c-0.5-0.6-0.7-1.2-0.7-2.1h1.9c0,0.4,0.1,0.8,0.4,1.2c0.2,0.4,0.6,0.7,0.9,1c0.5,0.3,0.9,0.4,1.5,0.4c0.8,0,1.3-0.3,1.8-0.7
				c0.4-0.4,0.6-1,0.6-1.7c0-0.6-0.1-1.1-0.5-1.4c-0.2-0.4-0.6-0.7-1.1-0.8c-0.5-0.3-0.9-0.4-1.8-0.7c-0.8-0.3-1.5-0.6-2-0.8
				c-0.5-0.3-0.9-0.7-1.3-1.2c-0.4-0.6-0.6-1.2-0.6-2.1c0-0.7,0.1-1.4,0.5-1.9c0.4-0.6,0.8-1,1.4-1.4c0.6-0.3,1.4-0.4,2.2-0.4
				c1.3,0,2.3,0.4,3.2,1.1c0.8,0.7,1.2,1.5,1.4,2.6h-1.9c-0.1-0.6-0.4-1.1-0.8-1.5c-0.5-0.4-1.1-0.7-1.8-0.7c-0.7,0-1.3,0.1-1.6,0.6
				c-0.5,0.4-0.6,1-0.6,1.7c0,0.6,0.1,1,0.4,1.4c0.2,0.4,0.6,0.7,1.1,0.8c0.4,0.1,0.9,0.4,1.6,0.7c0.8,0.3,1.5,0.6,2.1,0.8
				c0.5,0.3,0.9,0.7,1.3,1.2c0.4,0.6,0.6,1.2,0.6,2.2C115.7,131.2,115.5,131.9,115.2,132.4z"/>
			<path d="M119.7,121.2v5h5.1v1.4h-5.1v5.1h5.6v1.5H118v-14.5h7.4v1.5L119.7,121.2L119.7,121.2z"/>
			<path d="M138.1,130.8c-0.6,1.1-1.4,1.9-2.5,2.5c-1.1,0.6-2.3,0.8-3.9,0.8h-4.2v-14.5h4.2c1.5,0,2.8,0.3,3.9,0.8
				c1.1,0.6,1.9,1.4,2.5,2.5c0.6,1.1,0.8,2.3,0.8,3.9C138.9,128.4,138.5,129.8,138.1,130.8z M135.7,131.1c0.9-1,1.4-2.3,1.4-4.1
				c0-1.8-0.5-3.2-1.4-4.1c-0.9-1-2.2-1.5-4-1.5h-2.3v11.2h2.3C133.4,132.6,134.8,132,135.7,131.1z"/>
			<path d="M155.8,121c1.1,0.8,1.8,2.1,2.2,3.6h-1.9c-0.4-1-0.9-1.7-1.6-2.3c-0.8-0.6-1.6-0.8-2.8-0.8c-0.8,0-1.6,0.3-2.3,0.7
				c-0.7,0.4-1.3,1.1-1.6,1.9c-0.4,0.8-0.6,1.8-0.6,3c0,1.1,0.2,2.1,0.6,3c0.4,0.8,0.9,1.5,1.6,1.9c0.7,0.4,1.5,0.7,2.3,0.7
				c1.1,0,2-0.3,2.8-0.8c0.8-0.6,1.3-1.4,1.6-2.3h1.9c-0.4,1.5-1.2,2.8-2.2,3.6c-1.1,0.8-2.5,1.2-4.1,1.2c-1.3,0-2.3-0.3-3.3-1
				c-0.9-0.7-1.8-1.5-2.2-2.6c-0.6-1.1-0.8-2.3-0.8-3.9c0-1.4,0.2-2.8,0.8-3.9c0.6-1.1,1.3-1.9,2.2-2.6c0.9-0.7,2.1-1,3.3-1
				C153.5,119.6,154.8,120,155.8,121z"/>
			<path d="M170.6,119.7v14.5h-1.8v-6.8h-6.8v6.8h-1.8v-14.5h1.8v6.2h6.8v-6.2H170.6z"/>
			<path d="M181.3,130.9h-5.8l-1.2,3.3h-1.9l4.9-14.2h2l4.9,14.2h-1.9L181.3,130.9z M180.7,129.4l-2.5-7.3l-2.5,7.3H180.7z"/>
			<path d="M196.3,134.2h-1.8l-6.9-11.5v11.5h-1.8v-14.5h1.8l6.9,11.5v-11.5h1.8V134.2z"/>
			<path d="M209.5,134.2h-1.8l-6.9-11.5v11.5h-1.8v-14.5h1.8l6.9,11.5v-11.5h1.8V134.2z"/>
			<path d="M213.9,121.2v5h5.1v1.4h-5.1v5.1h5.6v1.5h-7.4v-14.5h7.4v1.5L213.9,121.2L213.9,121.2z"/>
			<path d="M223.6,132.8h4.8v1.5H222v-14.5h1.8v13H223.6z"/>
			<path d="M236.5,128.4v5.8h-1.6v-14.5h4.2c1.5,0,2.7,0.4,3.4,1.1c0.7,0.8,1.2,1.8,1.2,3.2s-0.4,2.3-1.2,3.2
				c-0.8,0.8-1.9,1.1-3.4,1.1h-2.6V128.4z M241.1,126.1c0.5-0.4,0.7-1.1,0.7-2.1s-0.2-1.7-0.7-2.1c-0.5-0.4-1.2-0.7-2.2-0.7h-2.3
				v5.5h2.3C240,126.9,240.7,126.6,241.1,126.1z"/>
			<path d="M253.4,130.9h-5.8l-1.2,3.3h-1.9l4.9-14.2h2l4.9,14.2h-1.9L253.4,130.9z M252.9,129.4l-2.5-7.3l-2.5,7.3H252.9z"/>
			<path d="M265.3,134.2l-3.5-5.9h-1.9v5.9h-1.8v-14.5h4.4c1.5,0,2.7,0.4,3.4,1.2c0.8,0.8,1.2,1.8,1.2,3.2c0,1.2-0.4,2.1-0.9,2.9
				c-0.6,0.7-1.5,1.1-2.7,1.4l3.6,5.9h-1.9V134.2z M259.9,127h2.6c2,0,2.9-1,2.9-2.8s-0.9-2.8-2.9-2.8h-2.6V127z"/>
			<path d="M277.4,119.7v1.5h-3.7v13h-1.8v-13h-3.7v-1.5H277.4z"/>
			<path d="M289.6,134.2h-1.8l-6.9-11.5v11.5h-1.8v-14.5h1.8l6.9,11.5v-11.5h1.8V134.2z"/>
			<path d="M294,121.2v5h5.1v1.4H294v5.1h5.6v1.5h-7.4v-14.5h7.4v1.5L294,121.2L294,121.2z"/>
			<path d="M308.9,134.2l-3.5-5.9h-1.9v5.9h-1.8v-14.5h4.4c1.5,0,2.7,0.4,3.4,1.2c0.8,0.8,1.2,1.8,1.2,3.2c0,1.2-0.4,2.1-0.9,2.9
				c-0.6,0.7-1.5,1.1-2.7,1.4l3.6,5.9h-1.9V134.2z M303.6,127h2.6c2,0,2.9-1,2.9-2.8s-0.9-2.8-2.9-2.8h-2.6L303.6,127L303.6,127z"/>
		</g>
	</g>
</g>
</svg>
